<svg width="1024" height="1024" viewBox="0 0 1024 1024" fill="none" xmlns="http://www.w3.org/2000/svg">
<rect width="1024" height="1024" fill="black"/>
<rect x="11.5654" y="24.5144" width="991.033" height="989.83" rx="120" fill="black"/>
<rect x="74.0566" y="83.7755" width="867.449" height="867.449" rx="128.5" fill="#EAEAEA" stroke="#EAEAEA" stroke-width="17"/>
<path d="M453.254 187.069C458.167 193.773 443.23 203.698 433.089 201.246C431.541 199.507 431.574 199.431 430.318 197.442C429.802 187.543 445.719 187.896 453.254 187.069Z" fill="#E0DBDB"/>
<path d="M307.284 359.582C321.197 358.155 335.187 361.472 346.975 368.991C361.022 377.809 370.976 391.849 374.641 408.01C376.824 418.062 377.002 475.185 375.12 485.746C373.596 494.504 370.361 502.876 365.6 510.383C355.221 526.536 340.853 534.705 322.458 538.65C283.526 543.717 248.71 511.499 250.973 472.688C252.066 453.954 248.658 427.645 252.589 410.273C254.528 401.997 258.067 394.179 263.007 387.259C274.015 371.597 288.555 362.837 307.284 359.582Z" fill="black"/>
<path d="M703.021 359.597C717.085 358.219 727.791 360.378 740.151 367.535C755.142 376.164 766.044 390.434 770.418 407.154C773.155 417.638 773.002 477.636 771.127 487.998C769.838 495.04 767.277 501.789 763.569 507.914C753.252 525.003 737.976 534.132 718.97 538.719C685.438 543.132 654.411 518.77 648.829 485.395C646.141 469.322 649.138 447.595 648.122 430.957C645.953 395.449 666.963 365.514 703.021 359.597Z" fill="black"/>
<path d="M629.876 583.975C636.449 583.674 644.894 585.374 649.357 590.672C659.739 603.001 650.685 619.698 642.899 630.944C580.375 721.26 452.815 724.131 385.398 637.577C380.262 630.609 377.706 624.944 373.223 617.316C361.439 597.258 384.837 575.349 403.15 587.821C407.938 591.083 411.919 602.101 415.474 607.694C427.063 625.922 444.923 639.728 464.464 648.683C508.228 667.817 563.489 657.986 596.205 622.882C601.132 617.652 605.591 612.002 609.532 605.996C615.642 596.657 617.884 588.371 628.801 584.359L629.876 583.975Z" fill="black"/>
<path d="M185.005 537.95C202.347 537.638 235.299 534.613 249.725 543.543C281.434 563.175 269.973 600.607 234.018 607.165C215.114 607.495 182.358 610.594 167.164 601.028C159.411 596.25 153.887 588.58 151.818 579.719C146.981 558.126 165.087 541.471 185.005 537.95Z" fill="black"/>
<path d="M792.747 538.023C809.696 536.877 845.041 535.365 858.871 545.527C866.101 550.799 870.879 558.777 872.105 567.633C875.318 589.625 857.112 604.428 836.808 607.054C824.728 607.857 792.898 608.485 782.538 605.523C741.348 593.748 751.003 543.156 792.747 538.023Z" fill="black"/>
<path d="M832.643 121.22C834.813 121.106 836.985 121.032 839.157 121C858.577 120.906 875.761 147.339 890.395 159.322C901.918 168.76 907.786 178.095 907.652 193.092C907.503 209.511 907.729 226.611 907.724 243.307L907.882 333.156C901.722 333.588 894.028 333.368 887.742 333.355L887.693 305.897C888.262 268.672 888.991 224.044 887.957 187.026C882.072 177.274 848.788 145.669 839.039 139.687C824.005 139.017 803.287 139.56 788.275 139.843C788.094 133.808 788.19 127.451 788.188 121.385C803.007 121.436 817.825 121.38 832.643 121.22Z" fill="black"/>
<path d="M358.817 167.465C368.18 158.67 381.584 153.407 391.536 163.7C401.283 173.782 398.019 205.972 398.016 219.508L380.553 219.597C380.223 211.565 381.633 179.663 379.493 177.901C356.806 159.216 362.667 207.128 362.812 211.709C362.765 215.851 363.456 215.769 361.517 218.53C356.971 220.47 350.61 219.485 345.154 219.361C345.552 212.55 347.408 179.296 342.365 176.476C321.094 164.574 326.765 208.216 326.501 219.376C320.882 219.533 314.454 219.304 308.769 219.223C308.667 199.774 308.739 180.325 308.984 160.877C314.575 160.439 318.466 160.023 324.069 160.457C326.115 161.924 325.493 162.06 326.105 165.447C327.384 165.373 336.756 159.72 340.276 158.519C349.55 157.849 353.507 160.068 358.817 167.465Z" fill="black"/>
<path d="M434.18 158.658C471.72 153.345 464.101 195.682 463.496 219.513C460.087 219.541 449.702 220.088 447.448 218.953C447.576 216.665 447.833 215.694 447.1 213.54C438.398 213.617 429.887 230.801 411.352 214.927C400.007 201.759 408.89 190.588 422.625 186.373C429.072 184.395 440.336 183.645 445.065 179.981C445.458 178.584 445.971 178.241 445.148 177.147C439.296 169.38 429.449 173.79 423.68 177.166C418.255 177.211 413.807 178.154 410.493 173.472C410.743 163.794 426.37 159.819 434.18 158.658Z" fill="black"/>
<path d="M444.666 193.634C449.376 200.054 435.055 209.56 425.332 207.211C423.848 205.546 423.88 205.473 422.676 203.568C422.181 194.088 437.441 194.426 444.666 193.634Z" fill="#EAEAEA"/>
<path d="M172.037 158.514C206.191 157.122 198.598 195.406 198.17 219.093C192.698 219.609 185.577 219.434 179.939 219.448C179.719 212.662 179.921 204.955 180.149 198.163C180.573 185.489 180.902 167.425 162.302 176.859C157.267 181.642 156.59 185.807 156.674 192.642C156.786 201.68 157.069 210.382 156.71 219.434L138.414 219.49L138.157 160.842C146.098 160.628 152.61 157.491 156.588 165.201C162.646 162.97 164.98 160.301 172.037 158.514Z" fill="black"/>
<path d="M282.123 160.846L300.974 160.959C297.213 167.589 284.986 183.382 280.038 190.131C284.545 196.057 297.141 212.054 299.846 218.079L298.858 219.138C293.151 219.305 287.188 219.289 281.457 219.359C277.727 213.128 273.119 207.565 268.593 201.9C264.533 206.742 259.88 214.029 256.23 219.401C249.305 219.426 242.381 219.376 235.458 219.247C242.936 209.793 251.227 199.771 257.967 189.89C252.297 180.585 243.204 170.388 238.305 161.145C243.987 160.703 252.496 160.911 258.386 160.877L269.565 177.293C273.629 172.811 278.433 165.864 282.123 160.846Z" fill="black"/>
<path d="M498.199 158.558C513.618 157.7 524.123 159.422 531.124 174.635C526.029 178.263 524.121 178.946 518.474 181.092C499.301 159.762 485.086 186.042 493.877 200.29C495.813 203.424 498.994 205.585 502.623 206.232C512.952 208.121 510.083 197.19 522.919 199.828C525.595 200.525 526.828 200.608 528.948 202.411C532.013 211.149 519.588 217.897 512.962 220.203C504.902 223.002 496.037 222.305 488.513 218.284C463.741 204.943 467.259 166.995 498.199 158.558Z" fill="black"/>
<path d="M210.932 160.876C217.261 160.603 223.109 160.733 229.446 160.856C230.456 174.811 229.394 203.578 229.649 219.238C223.794 219.557 216.684 219.372 210.722 219.366C211.054 199.871 211.124 180.372 210.932 160.876Z" fill="black"/>
<path d="M708.405 121.58L743.492 121.457C743.623 127.488 743.658 133.52 743.596 139.552C731.849 139.483 720.099 139.557 708.353 139.773L708.405 121.58Z" fill="black"/>
<path d="M136 310.827C148.12 310.703 160.144 310.472 172.257 310.976L172.231 326.363C160.168 326.414 148.105 326.375 136.042 326.248L136 310.827Z" fill="black"/>
<path d="M136.034 276.113C147.017 275.624 160.842 276.135 172.031 276.264L172.642 291.477C161.174 291.929 147.735 291.636 136.114 291.669L136.034 276.113Z" fill="black"/>
<path d="M136.136 247.563C146.97 247.004 161.505 247.453 172.617 247.469L172.447 260.687C160.547 261.068 148.092 260.975 136.141 261.047C136.052 256.637 136.128 251.994 136.136 247.563Z" fill="black"/>
<path d="M885.891 409.999C892.909 409.788 900.777 410.048 907.859 410.125C908.03 416.342 908.032 422.751 908.116 428.987C900.724 428.945 893.333 428.789 885.948 428.521L885.891 409.999Z" fill="black"/>
<path d="M217.622 130.929C223.409 129.294 229.431 132.629 231.11 138.396C232.789 144.163 229.493 150.203 223.731 151.922C217.911 153.657 211.788 150.325 210.092 144.498C208.395 138.671 211.776 132.58 217.622 130.929Z" fill="black"/>
<path d="M886.274 353.519C893.367 353.216 900.875 353.511 908.006 353.663C908.111 359.42 907.925 365.293 907.808 371.06L886.25 370.517C886.039 364.712 886.155 359.328 886.274 353.519Z" fill="black"/>
<path d="M886.686 384.091C894.252 383.861 900.197 383.975 907.768 384.322C907.773 388.65 907.956 393.28 908.059 397.633L886.434 397.139C886.394 392.504 886.429 388.744 886.686 384.091Z" fill="black"/>
<path d="M160.105 852.007L182.04 851.781C182.129 855.823 182.104 860.545 182.421 864.515C175.401 864.828 167.155 864.61 160.042 864.597L160.105 852.007Z" fill="black"/>
<path d="M160.105 878.03L182.04 877.804C182.129 881.845 182.104 886.567 182.421 890.537C175.401 890.85 167.155 890.632 160.042 890.619L160.105 878.03Z" fill="black"/>
<path d="M760.457 121.948C764.856 121.725 769.763 121.725 774.208 121.64C774.066 127.474 774.309 133.767 774.43 139.643L760.492 139.438L760.457 121.948Z" fill="black"/>
<path d="M181.692 851.891C187.694 851.677 192.804 851.51 198.799 851.736L199.064 864.471C193.691 864.514 187.359 864.399 182.073 864.625C181.756 860.655 181.781 855.933 181.692 851.891Z" fill="black"/>
<path d="M181.692 877.913C187.694 877.699 192.804 877.532 198.799 877.758L199.064 890.493C193.691 890.536 187.359 890.421 182.073 890.647C181.756 886.677 181.781 881.955 181.692 877.913Z" fill="black"/>
<path d="M904.562 679.649L906.441 680.305C909.148 685.612 908.19 814.092 908.091 829.776C908.052 836.06 908.149 843.54 905.604 849.376C899.87 862.518 865.549 893.585 852.981 906.015C848.33 910.616 843.151 915.842 836.786 917.915C824.668 921.859 756.281 919.324 738.587 919.234C737.928 919.113 737.385 918.64 736.801 918.312C735.833 913.311 735.992 902.268 735.92 896.681C766.089 896.373 796.91 896.817 827.171 896.835C838.185 888.491 874.116 852.954 882.713 842.158C883.572 814.361 882.275 783.242 882.743 755.102C882.974 741.204 883.442 707.626 881.88 695.458C889.119 687.631 894.734 683.535 904.562 679.649Z" fill="black"/>
<path d="M695.482 897.201C706.083 896.524 719.75 896.859 730.643 896.861C730.645 903.769 730.884 912.412 730.109 919.126C717.958 919.157 706.535 919.137 694.39 918.649C694.253 913.891 693.365 900.729 695.482 897.201Z" fill="black"/>
</svg>
