<svg width="1024" height="1024" viewBox="0 0 1024 1024" fill="none" xmlns="http://www.w3.org/2000/svg">
<rect x="12.1616" y="14.147" width="1001.72" height="1001.38" rx="120" fill="#111111"/>
<rect x="75.4187" y="74.1884" width="876.623" height="876.623" rx="88.5" fill="#EAEAEA" stroke="#EAEAEA" stroke-width="17"/>
<path d="M458.615 178.598C463.581 185.38 448.483 195.421 438.232 192.941C436.668 191.182 436.701 191.104 435.432 189.092C434.91 179.078 450.998 179.435 458.615 178.598Z" fill="#E0DBDB"/>
<path d="M289.29 345.45C304.336 343.938 319.465 347.452 332.213 355.42C347.403 364.763 358.169 379.641 362.132 396.766C364.493 407.418 364.685 467.949 362.65 479.14C361.002 488.42 357.503 497.291 352.354 505.246C341.13 522.363 325.593 531.019 305.699 535.199C263.597 540.569 225.946 506.429 228.393 465.302C229.575 445.451 225.89 417.573 230.141 399.164C232.238 390.394 236.064 382.11 241.407 374.778C253.312 358.182 269.036 348.899 289.29 345.45Z" fill="black"/>
<path d="M717.254 345.466C732.463 344.005 744.041 346.293 757.407 353.877C773.619 363.02 785.41 378.141 790.139 395.859C793.099 406.969 792.934 470.545 790.907 481.526C789.512 488.988 786.743 496.139 782.733 502.63C771.575 520.739 755.055 530.412 734.502 535.272C698.239 539.949 664.685 514.134 658.649 478.767C655.742 461.736 658.983 438.713 657.884 421.082C655.539 383.456 678.26 351.735 717.254 345.466Z" fill="black"/>
<path d="M638.154 583.229C645.261 582.909 654.394 584.711 659.22 590.325C670.449 603.389 660.657 621.082 652.236 632.999C584.621 728.703 446.673 731.745 373.766 640.028C368.211 632.644 365.447 626.641 360.599 618.558C347.855 597.304 373.159 574.087 392.963 587.304C398.141 590.76 402.446 602.436 406.291 608.362C418.823 627.678 438.138 642.307 459.27 651.796C506.598 672.072 566.36 661.654 601.74 624.456C607.068 618.915 611.891 612.928 616.153 606.562C622.76 596.667 625.184 587.886 636.991 583.635L638.154 583.229Z" fill="black"/>
<path d="M157.053 534.457C175.807 534.127 211.443 530.921 227.043 540.384C261.335 561.187 248.941 600.852 210.057 607.801C189.614 608.151 154.191 611.435 137.76 601.298C129.375 596.236 123.401 588.108 121.163 578.718C115.933 555.837 135.513 538.188 157.053 534.457Z" fill="black"/>
<path d="M814.288 534.535C832.616 533.321 870.839 531.718 885.796 542.487C893.615 548.073 898.782 556.527 900.107 565.912C903.582 589.216 883.894 604.901 861.936 607.684C848.873 608.535 814.451 609.2 803.246 606.062C758.702 593.584 769.143 539.974 814.288 534.535Z" fill="black"/>
<path d="M857.433 92.8684C859.78 92.7477 862.128 92.6697 864.477 92.6359C885.478 92.5365 904.062 120.546 919.888 133.244C932.349 143.244 938.695 153.136 938.55 169.028C938.388 186.426 938.633 204.547 938.628 222.238L938.798 317.447C932.137 317.905 923.816 317.672 917.019 317.658L916.966 288.562C917.581 249.117 918.37 201.826 917.251 162.601C910.887 152.267 874.892 118.776 864.35 112.438C848.091 111.728 825.686 112.303 809.452 112.603C809.256 106.207 809.359 99.4714 809.358 93.0442C825.383 93.0974 841.408 93.0388 857.433 92.8684Z" fill="black"/>
<path d="M345.02 141.873C355.145 132.552 369.641 126.975 380.403 137.883C390.944 148.566 387.415 182.676 387.411 197.02L368.526 197.114C368.169 188.603 369.694 154.798 367.38 152.931C342.845 133.131 349.184 183.901 349.34 188.756C349.289 193.145 350.036 193.058 347.94 195.983C343.023 198.039 336.144 196.995 330.244 196.864C330.674 189.647 332.682 154.41 327.228 151.421C304.225 138.809 310.358 185.055 310.072 196.88C303.996 197.047 297.044 196.803 290.896 196.718C290.786 176.109 290.864 155.499 291.129 134.892C297.175 134.427 301.383 133.987 307.442 134.446C309.655 136.001 308.982 136.145 309.644 139.734C311.027 139.656 321.162 133.665 324.969 132.393C334.998 131.683 339.278 134.035 345.02 141.873Z" fill="black"/>
<path d="M426.52 132.54C467.117 126.91 458.878 171.772 458.223 197.025C454.536 197.055 443.307 197.634 440.869 196.432C441.007 194.008 441.284 192.978 440.492 190.696C431.081 190.777 421.877 208.987 401.833 192.165C389.564 178.212 399.171 166.375 414.024 161.909C420.996 159.813 433.178 159.017 438.292 155.136C438.716 153.655 439.271 153.291 438.381 152.132C432.053 143.902 421.404 148.575 415.165 152.152C409.298 152.2 404.488 153.199 400.904 148.238C401.175 137.982 418.074 133.77 426.52 132.54Z" fill="black"/>
<path d="M437.86 169.602C442.954 176.405 427.467 186.478 416.952 183.99C415.347 182.225 415.381 182.147 414.079 180.129C413.544 170.083 430.048 170.442 437.86 169.602Z" fill="#EAEAEA"/>
<path d="M143.029 132.387C179.965 130.912 171.753 171.48 171.291 196.58C165.373 197.127 157.672 196.942 151.575 196.956C151.337 189.766 151.555 181.599 151.802 174.401C152.261 160.972 152.616 141.83 132.501 151.827C127.057 156.895 126.324 161.309 126.415 168.551C126.536 178.129 126.843 187.35 126.455 196.942L106.668 197L106.391 134.855C114.978 134.628 122.021 131.303 126.322 139.473C132.873 137.109 135.398 134.281 143.029 132.387Z" fill="black"/>
<path d="M262.08 134.858L282.467 134.979C278.399 142.004 265.176 158.739 259.826 165.89C264.699 172.17 278.321 189.121 281.246 195.506L280.178 196.628C274.006 196.805 267.557 196.787 261.36 196.862C257.326 190.259 252.343 184.364 247.448 178.361C243.057 183.493 238.026 191.214 234.078 196.906C226.589 196.933 219.101 196.88 211.615 196.743C219.701 186.725 228.668 176.105 235.957 165.635C229.825 155.775 219.992 144.97 214.694 135.176C220.838 134.707 230.041 134.927 236.41 134.892L248.5 152.287C252.894 147.537 258.09 140.176 262.08 134.858Z" fill="black"/>
<path d="M495.753 132.434C512.427 131.525 523.787 133.349 531.359 149.47C525.849 153.315 523.786 154.039 517.679 156.312C496.944 133.71 481.572 161.558 491.079 176.656C493.172 179.977 496.612 182.266 500.537 182.951C511.707 184.954 508.604 173.37 522.485 176.166C525.38 176.904 526.713 176.993 529.005 178.903C532.32 188.163 518.883 195.312 511.718 197.757C503.002 200.723 493.415 199.984 485.277 195.722C458.488 181.587 462.293 141.374 495.753 132.434Z" fill="black"/>
<path d="M185.091 134.89C191.936 134.601 198.26 134.739 205.113 134.869C206.205 149.656 205.057 180.14 205.333 196.734C199.001 197.071 191.312 196.876 184.864 196.869C185.223 176.212 185.3 155.549 185.091 134.89Z" fill="black"/>
<path d="M723.077 93.2501L761.021 93.1205C761.163 99.5104 761.201 105.902 761.134 112.294C748.43 112.221 735.723 112.299 723.021 112.528L723.077 93.2501Z" fill="black"/>
<path d="M104.057 293.786C117.164 293.655 130.168 293.41 143.268 293.944L143.239 310.249C130.193 310.302 117.148 310.262 104.103 310.127L104.057 293.786Z" fill="black"/>
<path d="M104.094 257.002C115.971 256.483 130.923 257.025 143.023 257.161L143.683 273.282C131.282 273.761 116.747 273.45 104.181 273.486L104.094 257.002Z" fill="black"/>
<path d="M104.204 226.749C115.92 226.156 131.639 226.631 143.656 226.649L143.473 240.656C130.603 241.059 117.134 240.961 104.21 241.037C104.114 236.364 104.195 231.443 104.204 226.749Z" fill="black"/>
<path d="M915.017 398.874C922.606 398.651 931.115 398.926 938.774 399.007C938.959 405.596 938.961 412.387 939.051 418.995C931.057 418.95 923.065 418.785 915.078 418.501L915.017 398.874Z" fill="black"/>
<path d="M192.326 103.157C198.585 101.425 205.097 104.958 206.913 111.069C208.728 117.181 205.164 123.581 198.933 125.402C192.638 127.241 186.017 123.71 184.184 117.535C182.348 111.361 186.004 104.907 192.326 103.157Z" fill="black"/>
<path d="M915.43 339.025C923.101 338.704 931.221 339.016 938.932 339.178C939.046 345.278 938.845 351.501 938.718 357.612L915.405 357.037C915.176 350.885 915.301 345.181 915.43 339.025Z" fill="black"/>
<path d="M915.876 371.42C924.059 371.177 930.488 371.298 938.676 371.665C938.681 376.252 938.879 381.157 938.99 385.77L915.604 385.247C915.561 380.336 915.599 376.351 915.876 371.42Z" fill="black"/>
<path d="M130.126 867.249L153.847 867.009C153.943 871.292 153.916 876.295 154.258 880.502C146.667 880.834 137.75 880.603 130.057 880.589L130.126 867.249Z" fill="black"/>
<path d="M130.126 894.824L153.847 894.584C153.943 898.867 153.916 903.87 154.258 908.077C146.667 908.409 137.75 908.178 130.057 908.164L130.126 894.824Z" fill="black"/>
<path d="M779.368 93.6404C784.125 93.4043 789.431 93.4044 794.239 93.3138C794.085 99.4959 794.348 106.164 794.479 112.391L779.406 112.174L779.368 93.6404Z" fill="black"/>
<path d="M153.471 867.126C159.961 866.899 165.487 866.721 171.971 866.961L172.257 880.455C166.447 880.501 159.599 880.379 153.882 880.619C153.54 876.412 153.567 871.409 153.471 867.126Z" fill="black"/>
<path d="M153.471 894.7C159.961 894.473 165.487 894.296 171.971 894.535L172.257 908.03C166.447 908.076 159.599 907.954 153.882 908.193C153.54 903.987 153.567 898.983 153.471 894.7Z" fill="black"/>
<path d="M935.208 684.609L937.241 685.304C940.168 690.927 939.132 827.072 939.025 843.692C938.983 850.35 939.088 858.276 936.335 864.46C930.134 878.387 893.018 911.307 879.427 924.479C874.397 929.353 868.796 934.892 861.913 937.088C848.808 941.267 774.852 938.58 755.717 938.486C755.005 938.358 754.417 937.857 753.785 937.508C752.739 932.209 752.911 920.507 752.833 914.587C785.459 914.261 818.79 914.731 851.515 914.75C863.425 905.908 902.283 868.252 911.58 856.812C912.509 827.357 911.107 794.381 911.612 764.563C911.863 749.836 912.368 714.254 910.679 701.361C918.508 693.067 924.58 688.727 935.208 684.609Z" fill="black"/>
<path d="M709.102 915.139C720.566 914.421 735.346 914.776 747.126 914.778C747.128 922.098 747.387 931.257 746.549 938.371C733.408 938.404 721.055 938.383 707.92 937.866C707.773 932.824 706.812 918.877 709.102 915.139Z" fill="black"/>
</svg>
