<svg width="530" height="490" viewBox="0 0 530 490" fill="none" xmlns="http://www.w3.org/2000/svg">
<rect width="530" height="490" rx="86" fill="#262626"/>
<path d="M432.712 21.5162C437.9 21.5022 446.474 21.264 451.351 21.985C463.043 23.713 476.854 29.517 486.072 36.8619C498.821 47.0209 509.177 63.0023 510.833 79.4323C511.675 87.8051 511.4 98.9117 511.399 107.585L511.331 152.419L511.209 290.057L511.193 372.98C511.199 385.136 511.954 402.252 510.6 413.983C506.74 433.615 492.82 452.013 475.624 461.847C465.797 467.466 458.233 469.759 447.621 470.797C440.523 471.551 429.935 471.009 422.594 471.004L376.31 470.984L229.853 471.008L129.648 471.055L99.9585 471.116C93.3106 471.126 85.4183 471.426 78.7534 470.49C47.8966 466.16 19.9647 436.037 19.6147 404.612C19.5597 399.664 19.6373 394.617 19.6313 389.658L19.5923 348.493L19.604 222.166L19.5962 127.385L19.6001 100.22C19.6031 94.1415 19.2545 86.2652 20.2544 80.3473C25.8234 47.3833 52.1311 24.2696 85.3101 21.7096C94.612 21.3236 105.139 21.5522 114.518 21.5582L165.079 21.5826L318.681 21.5621L406.021 21.5865L432.712 21.5162ZM489.182 325.324C484.136 327.321 481.253 329.426 477.536 333.448C478.338 339.701 478.098 356.957 477.979 364.099C477.739 378.56 478.404 394.552 477.963 408.837C473.549 414.385 455.101 432.647 449.446 436.935C433.909 436.926 418.084 436.698 402.594 436.856C402.631 439.727 402.548 445.402 403.045 447.972C403.345 448.141 403.625 448.384 403.962 448.446C413.047 448.492 448.161 449.795 454.383 447.768C457.651 446.703 460.31 444.017 462.698 441.653C469.151 435.265 486.773 419.3 489.717 412.546C491.024 409.547 490.974 405.703 490.994 402.474C491.045 394.414 491.537 328.388 490.147 325.661L489.182 325.324ZM393.087 437.025C387.494 437.024 380.478 436.852 375.035 437.2C373.948 439.013 374.404 445.777 374.474 448.222C380.71 448.473 386.575 448.483 392.814 448.467C393.212 445.017 393.088 440.575 393.087 437.025ZM336.228 301.592L335.586 301.821C329.077 304.216 327.74 309.163 324.097 314.738C321.747 318.324 319.088 321.697 316.15 324.819C296.642 345.776 263.69 351.645 237.594 340.222C225.942 334.876 215.291 326.634 208.381 315.752C206.261 312.412 203.888 305.835 201.033 303.888C190.113 296.442 176.161 309.522 183.188 321.496C185.861 326.05 187.385 329.432 190.448 333.592C230.648 385.264 306.711 383.55 343.993 329.632C348.636 322.919 354.035 312.95 347.844 305.59C345.183 302.428 340.147 301.412 336.228 301.592ZM73.8052 360.302C70.2302 360.167 67.183 360.267 63.604 360.395L50.5239 360.53L50.4858 368.046C54.7277 368.054 59.6446 368.184 63.8306 367.997C66.9826 367.862 70.7594 367.931 73.9634 367.905L73.8052 360.302ZM109.546 277.454C100.944 272.123 81.2954 273.929 70.9546 274.115C59.0777 276.217 48.2815 286.16 51.1655 299.051C52.3996 304.341 55.694 308.92 60.3169 311.772C69.3769 317.483 88.9092 315.633 100.181 315.436C121.621 311.521 128.454 289.174 109.546 277.454ZM472.775 278.639C464.528 272.572 443.452 273.475 433.346 274.159C408.454 277.223 402.697 307.425 427.257 314.456C433.435 316.224 452.416 315.849 459.619 315.37C471.726 313.802 482.582 304.965 480.666 291.836C479.934 286.549 477.086 281.786 472.775 278.639ZM401.983 172.379C394.613 168.106 388.229 166.817 379.843 167.64C358.342 171.172 345.814 189.043 347.107 210.241C347.713 220.174 345.926 233.145 347.529 242.74C350.857 262.665 369.358 277.209 389.353 274.574C400.686 271.836 409.795 266.386 415.947 256.184C418.158 252.527 419.685 248.498 420.454 244.294C421.572 238.107 421.663 202.29 420.031 196.031C417.423 186.049 410.922 177.53 401.983 172.379ZM167.536 173.248C160.507 168.759 152.165 166.779 143.869 167.63C132.701 169.573 124.031 174.804 117.467 184.154C114.521 188.285 112.41 192.952 111.254 197.893C108.911 208.264 110.943 223.97 110.291 235.154C108.942 258.324 129.702 277.558 152.917 274.533C163.886 272.178 172.453 267.301 178.642 257.658C181.481 253.176 183.41 248.178 184.319 242.95C185.441 236.645 185.335 202.543 184.033 196.542C181.848 186.894 175.912 178.512 167.536 173.248ZM490.719 216.245C486.496 216.199 481.804 216.044 477.619 216.17L477.653 227.228C482.057 227.388 486.464 227.481 490.872 227.506C490.822 223.783 490.821 219.957 490.719 216.245ZM490.665 200.841C486.15 200.634 482.605 200.566 478.093 200.703C477.94 203.481 477.919 205.726 477.943 208.493L490.837 208.788C490.776 206.189 490.668 203.425 490.665 200.841ZM490.806 182.538C486.554 182.447 482.077 182.271 477.847 182.452C477.776 185.92 477.707 189.134 477.833 192.6L490.688 192.924C490.758 189.481 490.869 185.975 490.806 182.538ZM449.751 43.6403C448.457 43.6593 447.162 43.7031 445.868 43.7711C437.032 43.8671 428.196 43.8998 419.36 43.8698C419.361 47.4908 419.304 51.2863 419.412 54.8893C428.363 54.7203 440.717 54.3955 449.682 54.7955C455.495 58.3666 475.342 77.2353 478.851 83.0573C479.468 105.156 479.033 131.799 478.694 154.022L478.723 170.414C482.471 170.422 487.059 170.553 490.732 170.295L490.638 116.656C490.641 106.689 490.506 96.4802 490.595 86.6783C490.675 77.7255 487.176 72.1521 480.305 66.5182C471.579 59.3642 461.331 43.5843 449.751 43.6403ZM72.1323 151.531C64.9094 151.23 57.7391 151.368 50.5122 151.442L50.5366 160.648C57.7296 160.724 64.9228 160.747 72.1157 160.717L72.1323 151.531ZM71.9966 130.808C65.3246 130.731 57.0806 130.426 50.5317 130.718L50.5796 140.005C57.5086 139.985 65.5228 140.16 72.3608 139.89L71.9966 130.808ZM72.3462 113.618C65.7202 113.608 57.0523 113.34 50.5923 113.674C50.5873 116.319 50.5432 119.091 50.5962 121.724C57.722 121.681 65.1488 121.736 72.2446 121.509L72.3462 113.618ZM285.073 71.1842C280.898 62.1023 274.634 61.0736 265.44 61.5856C246.991 66.6225 244.893 89.2777 259.664 97.2418C264.151 99.6428 269.437 100.059 274.243 98.3883C278.194 97.0113 285.603 92.9831 283.775 87.7662C282.511 86.6903 281.776 86.6401 280.18 86.2242C272.526 84.6492 274.237 91.1745 268.078 90.0465C265.914 89.6605 264.017 88.3706 262.863 86.4996C257.621 77.9936 266.097 62.3051 277.53 75.0387C280.897 73.7577 282.035 73.3501 285.073 71.1842ZM244.747 97.9762C245.108 83.7493 249.651 58.4744 227.266 61.6461C222.609 62.3391 213.291 64.7119 213.142 70.4899C215.118 73.2846 217.77 72.722 221.004 72.6949C224.444 70.6799 230.317 68.0472 233.806 72.6842C234.297 73.3369 233.99 73.5419 233.756 74.3756C230.936 76.5625 224.219 77.011 220.375 78.192C212.186 80.7081 206.889 87.377 213.654 95.2379C224.706 104.715 229.781 94.4558 234.97 94.4098C235.407 95.6958 235.254 96.2762 235.178 97.6422C236.523 98.3189 242.714 97.9932 244.747 97.9762ZM201.837 64.6559C195.903 58.5112 187.911 61.653 182.328 66.9039C179.162 62.488 176.802 61.1632 171.272 61.5631C169.173 62.2801 163.585 65.6548 162.822 65.6989C162.457 63.6771 162.828 63.5961 161.608 62.7203C158.267 62.4613 155.947 62.7093 152.613 62.9713C152.467 74.5812 152.424 86.1925 152.485 97.8033C155.875 97.8513 159.708 97.9882 163.058 97.8942C163.216 91.2322 159.834 65.1778 172.518 72.2828C175.525 73.9675 174.418 93.8195 174.181 97.8854C177.434 97.9594 181.227 98.5472 183.938 97.3893C185.094 95.7413 184.681 95.7899 184.709 93.317C184.623 90.582 181.129 61.9794 194.657 73.1344C195.932 74.1881 195.092 93.2312 195.289 98.026L205.702 97.9733C205.704 89.8923 207.649 70.6749 201.837 64.6559ZM86.5356 97.7252C86.7906 83.5842 91.3186 60.7292 70.9526 61.5602C66.7448 62.6272 65.3526 64.2204 61.7407 65.5524C59.3687 60.9494 55.4855 62.8218 50.7505 62.9498L50.9038 97.9615L61.814 97.9293C62.028 92.5254 61.8585 87.3301 61.7915 81.9342C61.7415 77.8543 62.1461 75.3673 65.1479 72.5123C76.2389 66.8803 76.0426 77.6641 75.7896 85.2301C75.6536 89.2851 75.5336 93.8862 75.6646 97.9371C79.0265 97.9291 83.2727 98.0332 86.5356 97.7252ZM105.185 62.9576C101.406 62.8846 97.9189 62.8073 94.145 62.9703C94.26 74.6092 94.218 86.2504 94.02 97.8883C97.575 97.8923 101.815 98.0021 105.306 97.8121C105.154 88.4631 105.787 71.2886 105.185 62.9576ZM136.596 62.9518C134.396 65.9478 131.531 70.0951 129.108 72.7711L122.442 62.9713C118.93 62.9913 113.856 62.8675 110.468 63.1315C113.389 68.6493 118.811 74.7359 122.192 80.2906C118.173 86.1896 113.229 92.173 108.77 97.817C112.898 97.894 117.027 97.9238 121.156 97.9088C123.333 94.7018 126.107 90.3515 128.528 87.4606C131.227 90.8426 133.975 94.1644 136.199 97.8844C139.616 97.8424 143.172 97.8516 146.575 97.7516L147.164 97.1198C145.55 93.5226 138.04 83.9733 135.353 80.4352C138.303 76.4063 145.593 66.9783 147.836 63.0201L136.596 62.9518ZM106.178 49.5504C105.177 46.1075 101.586 44.1165 98.1353 45.0924C94.6493 46.0784 92.633 49.714 93.645 53.193C94.656 56.6719 98.3069 58.6606 101.778 57.6246C105.214 56.5987 107.179 52.9933 106.178 49.5504ZM371.786 43.986L371.754 54.8473C378.758 54.7183 385.765 54.6735 392.77 54.7145C392.807 51.1136 392.786 47.5126 392.708 43.9127L371.786 43.986ZM411.024 44.0221C408.373 44.0731 405.447 44.0727 402.824 44.2057L402.845 54.6481L411.156 54.7701C411.084 51.2622 410.939 47.5051 411.024 44.0221Z" fill="#DBDBDB" fill-opacity="0.85"/>
<path opacity="0.88" d="M234.506 82.8161C237.315 86.6491 228.775 92.3241 222.977 90.9221C222.092 89.9281 222.111 89.8841 221.393 88.7471C221.098 83.0871 230.198 83.2891 234.506 82.8161Z" fill="#DBDBDB"/>
</svg>
