<svg width="560" height="520" viewBox="0 0 560 520" fill="none" xmlns="http://www.w3.org/2000/svg">
<rect x="7.5" y="7.5" width="545" height="505" rx="93.5" fill="#262626" stroke="#262626" stroke-width="15"/>
<path fill-rule="evenodd" clip-rule="evenodd" d="M447.712 36.5162C452.9 36.5022 461.474 36.2639 466.351 36.9849C478.043 38.7129 491.854 44.5169 501.072 51.8619C513.821 62.0209 524.176 78.0022 525.832 94.4322C526.675 102.805 526.4 113.912 526.399 122.585L526.331 167.419L526.209 305.057L526.193 387.98C526.199 400.136 526.954 417.252 525.6 428.983C521.74 448.615 507.819 467.013 490.623 476.847C480.797 482.466 473.233 484.758 462.621 485.796C455.523 486.551 444.935 486.008 437.594 486.003L391.31 485.984L244.853 486.008L144.648 486.055L114.958 486.116C108.311 486.126 100.418 486.426 93.7534 485.49C62.8965 481.16 34.9647 451.037 34.6147 419.612C34.5597 414.664 34.6373 409.617 34.6313 404.658L34.5922 363.493L34.6039 237.166L34.5961 142.385L34.6 115.22C34.603 109.141 34.2544 101.265 35.2543 95.3472C40.8233 62.3832 67.131 39.2695 100.31 36.7095C109.612 36.3235 120.139 36.5521 129.518 36.5581L180.079 36.5826L333.681 36.5621L421.021 36.5865L447.712 36.5162ZM504.182 340.324C499.136 342.321 496.253 344.426 492.536 348.448C493.338 354.701 493.098 371.957 492.979 379.099C492.739 393.56 493.404 409.552 492.963 423.836C488.549 429.384 470.101 447.647 464.446 451.935C448.909 451.926 433.084 451.698 417.594 451.856C417.631 454.727 417.548 460.402 418.045 462.972C418.345 463.141 418.625 463.384 418.962 463.446C428.047 463.492 463.161 464.795 469.383 462.768C472.651 461.703 475.31 459.017 477.698 456.653C484.151 450.265 501.773 434.299 504.717 427.545C506.024 424.547 505.974 420.703 505.994 417.474C506.045 409.414 506.537 343.388 505.147 340.661L504.182 340.324ZM408.087 452.025C402.494 452.024 395.477 451.852 390.035 452.2C388.948 454.013 389.404 460.777 389.474 463.222C395.71 463.473 401.575 463.483 407.814 463.467C408.212 460.017 408.088 455.575 408.087 452.025ZM351.228 316.592L350.586 316.821C344.077 319.216 342.74 324.163 339.097 329.738C336.747 333.324 334.088 336.697 331.15 339.819C311.642 360.776 278.69 366.645 252.594 355.222C240.942 349.876 230.291 341.633 223.381 330.751C221.261 327.412 218.887 320.835 216.033 318.888C205.113 311.442 191.161 324.522 198.188 336.496C200.861 341.05 202.385 344.432 205.448 348.592C245.648 400.264 321.711 398.55 358.993 344.632C363.635 337.919 369.035 327.95 362.844 320.59C360.183 317.427 355.147 316.412 351.228 316.592ZM88.8051 375.302C85.2301 375.167 82.1829 375.267 78.6039 375.395L65.5239 375.53L65.4858 383.045C69.7277 383.053 74.6446 383.184 78.8305 382.997C81.9825 382.862 85.7593 382.931 88.9633 382.905L88.8051 375.302ZM124.546 292.454C115.944 287.123 96.2954 288.929 85.9545 289.115C74.0776 291.217 63.2815 301.16 66.1655 314.051C67.3995 319.341 70.6939 323.92 75.3168 326.772C84.3769 332.483 103.909 330.633 115.181 330.436C136.621 326.521 143.454 304.174 124.546 292.454ZM487.775 293.639C479.528 287.572 458.452 288.475 448.346 289.159C423.454 292.223 417.697 322.425 442.257 329.456C448.435 331.224 467.415 330.849 474.619 330.37C486.726 328.802 497.581 319.964 495.665 306.835C494.934 301.549 492.086 296.786 487.775 293.639ZM416.983 187.378C409.613 183.106 403.229 181.817 394.843 182.64C373.342 186.172 360.814 204.043 362.107 225.241C362.713 235.174 360.926 248.145 362.529 257.74C365.857 277.665 384.358 292.209 404.353 289.574C415.686 286.836 424.795 281.386 430.947 271.184C433.158 267.527 434.685 263.497 435.454 259.294C436.572 253.106 436.663 217.29 435.031 211.031C432.423 201.049 425.922 192.529 416.983 187.378ZM182.536 188.248C175.507 183.759 167.164 181.778 158.869 182.63C147.701 184.573 139.031 189.804 132.467 199.154C129.521 203.285 127.41 207.952 126.254 212.893C123.91 223.264 125.942 238.97 125.29 250.154C123.941 273.324 144.702 292.558 167.916 289.533C178.885 287.178 187.453 282.301 193.642 272.658C196.481 268.176 198.41 263.178 199.319 257.95C200.441 251.644 200.335 217.543 199.033 211.542C196.848 201.894 190.911 193.512 182.536 188.248ZM505.719 231.245C501.496 231.199 496.804 231.043 492.619 231.169L492.653 242.228C497.057 242.388 501.464 242.481 505.872 242.506C505.822 238.783 505.821 234.957 505.719 231.245ZM505.664 215.841C501.15 215.634 497.605 215.566 493.093 215.703C492.94 218.481 492.919 220.726 492.943 223.493L505.837 223.788C505.776 221.189 505.668 218.425 505.664 215.841ZM505.806 197.538C501.554 197.447 497.077 197.271 492.847 197.452C492.776 200.92 492.706 204.134 492.832 207.6L505.688 207.924C505.758 204.481 505.869 200.975 505.806 197.538ZM464.751 58.6402C463.457 58.6592 462.161 58.703 460.868 58.771C452.032 58.867 443.196 58.8997 434.36 58.8697C434.361 62.4907 434.304 66.2862 434.412 69.8892C443.363 69.7202 455.717 69.3954 464.682 69.7954C470.495 73.3665 490.342 92.2352 493.851 98.0572C494.468 120.156 494.033 146.799 493.694 169.022L493.723 185.414C497.471 185.422 502.059 185.552 505.732 185.294L505.638 131.656C505.641 121.689 505.506 111.48 505.595 101.678C505.675 92.7254 502.176 87.152 495.305 81.5181C486.579 74.3641 476.331 58.5842 464.751 58.6402ZM87.1323 166.531C79.9094 166.23 72.739 166.368 65.5121 166.442L65.5366 175.648C72.7295 175.724 79.9227 175.747 87.1157 175.717L87.1323 166.531ZM86.9965 145.808C80.3246 145.731 72.0806 145.426 65.5317 145.718L65.5795 155.005C72.5085 154.985 80.5228 155.16 87.3608 154.89L86.9965 145.808ZM87.3461 128.618C80.7201 128.608 72.0522 128.34 65.5922 128.674C65.5872 131.319 65.5431 134.091 65.5961 136.724C72.722 136.681 80.1488 136.736 87.2446 136.509L87.3461 128.618ZM300.073 86.1841C295.898 77.1022 289.634 76.0735 280.44 76.5855C261.991 81.6225 259.893 104.278 274.664 112.242C279.15 114.643 284.437 115.059 289.243 113.388C293.194 112.011 300.603 107.983 298.775 102.766C297.511 101.69 296.776 101.64 295.18 101.224C287.526 99.6492 289.237 106.174 283.078 105.046C280.914 104.66 279.017 103.37 277.863 101.5C272.621 92.9935 281.097 77.3051 292.53 90.0386C295.897 88.7576 297.035 88.35 300.073 86.1841ZM259.747 112.976C260.108 98.7492 264.651 73.4743 242.266 76.646C237.609 77.339 228.291 79.7118 228.142 85.4898C230.118 88.2846 232.77 87.7219 236.004 87.6949C239.444 85.6799 245.317 83.0471 248.806 87.6841C249.297 88.3368 248.99 88.5418 248.756 89.3755C245.936 91.5625 239.219 92.0109 235.375 93.1919C227.186 95.708 221.889 102.377 228.654 110.238C239.706 119.715 244.781 109.456 249.97 109.41C250.407 110.696 250.254 111.276 250.178 112.642C251.523 113.319 257.714 112.993 259.747 112.976ZM216.837 79.6558C210.903 73.5111 202.911 76.6529 197.328 81.9038C194.162 77.488 191.802 76.1631 186.272 76.563C184.173 77.28 178.585 80.6547 177.822 80.6988C177.457 78.677 177.828 78.5961 176.608 77.7203C173.267 77.4613 170.947 77.7092 167.613 77.9712C167.467 89.5811 167.424 101.192 167.485 112.803C170.875 112.851 174.708 112.988 178.058 112.894C178.216 106.232 174.834 80.1778 187.518 87.2828C190.525 88.9674 189.418 108.819 189.181 112.885C192.434 112.959 196.227 113.547 198.938 112.389C200.094 110.741 199.681 110.79 199.709 108.317C199.623 105.582 196.129 76.9793 209.657 88.1343C210.932 89.188 210.092 108.231 210.289 113.026L220.702 112.973C220.704 104.892 222.649 85.6748 216.837 79.6558ZM101.536 112.725C101.791 98.5841 106.319 75.7291 85.9526 76.5601C81.7448 77.6271 80.3526 79.2203 76.7407 80.5523C74.3687 75.9493 70.4854 77.8217 65.7504 77.9497L65.9037 112.961L76.8139 112.929C77.0279 107.525 76.8584 102.33 76.7914 96.9341C76.7414 92.8542 77.146 90.3672 80.1479 87.5122C91.2389 81.8802 91.0425 92.664 90.7895 100.23C90.6535 104.285 90.5335 108.886 90.6645 112.937C94.0264 112.929 98.2726 113.033 101.536 112.725ZM120.185 77.9576C116.406 77.8846 112.919 77.8073 109.145 77.9703C109.26 89.6091 109.218 101.25 109.02 112.888C112.575 112.892 116.815 113.002 120.306 112.812C120.154 103.463 120.787 86.2886 120.185 77.9576ZM151.596 77.9517C149.396 80.9477 146.531 85.095 144.108 87.771L137.442 77.9712C133.93 77.9912 128.856 77.8674 125.468 78.1314C128.389 83.6492 133.811 89.7358 137.192 95.2906C133.173 101.19 128.229 107.173 123.77 112.817C127.898 112.894 132.027 112.924 136.156 112.909C138.333 109.702 141.107 105.351 143.528 102.46C146.227 105.842 148.975 109.164 151.199 112.884C154.616 112.842 158.172 112.852 161.575 112.752L162.164 112.12C160.55 108.523 153.04 98.9732 150.353 95.4351C153.303 91.4062 160.593 81.9782 162.836 78.0201L151.596 77.9517ZM121.178 64.5503C120.177 61.1074 116.586 59.1165 113.135 60.0923C109.649 61.0783 107.633 64.7139 108.645 68.1929C109.656 71.6719 113.307 73.6605 116.778 72.6245C120.214 71.5986 122.179 67.9932 121.178 64.5503ZM386.786 58.9859L386.754 69.8472C393.758 69.7182 400.765 69.6734 407.77 69.7144C407.807 66.1135 407.785 62.5125 407.707 58.9126L386.786 58.9859ZM426.024 59.022C423.373 59.073 420.447 59.0726 417.824 59.2056L417.845 69.648L426.156 69.7701C426.084 66.2621 425.939 62.505 426.024 59.022Z" fill="#DBDBDB" fill-opacity="0.85"/>
<path opacity="0.88" d="M249.506 97.8161C252.315 101.649 243.775 107.324 237.977 105.922C237.092 104.928 237.111 104.884 236.393 103.747C236.098 98.0871 245.198 98.2891 249.506 97.8161Z" fill="#DBDBDB"/>
</svg>
