<svg width="576" height="533" viewBox="0 0 576 533" fill="none" xmlns="http://www.w3.org/2000/svg">
<path d="M107.027 0.425503C110.887 -0.228497 117.782 0.066502 121.904 0.065502L148.95 0.0834921L238.17 0.101497L398.89 0.115505L443.266 0.129497C454.973 0.137497 466.473 -0.369496 478.028 1.4925C501.516 5.2785 520.018 14.2245 537.816 29.8505C559.648 49.0435 573.039 76.0655 575.088 105.063C575.551 112.328 575.319 121.792 575.334 129.171L575.386 171.725L575.359 301.096L575.377 385.44C575.38 399.169 576.137 424.161 573.924 436.797C570.222 457.805 560.76 477.372 546.592 493.319C527.159 515.394 497.86 530.694 468.361 532.508C462.966 533.249 453.612 532.767 447.971 532.768L410.191 532.763L291.001 532.763L166.969 532.758L131.892 532.753C119.289 532.746 107.537 532.983 94.95 530.928C46.444 523.009 7.19 481.091 0.559 432.678C-0.372 425.878 0.137995 416.256 0.150995 409.274L0.179987 373.904L0.190989 256.168L0.25799 152.851C0.29399 108.718 -3.964 80.0335 26.557 43.0175C46.617 18.6455 75.592 3.3085 107.027 0.425503Z" fill="#010101"/>
<path d="M107.532 41.9345C116.834 41.5485 127.361 41.7765 136.74 41.7825L187.301 41.8075L340.903 41.7865L428.243 41.8115L454.935 41.7405C460.123 41.7265 468.696 41.4885 473.573 42.2095C485.265 43.9375 499.076 49.7415 508.294 57.0865C521.043 67.2455 531.399 83.2265 533.055 99.6565C533.898 108.03 533.622 119.136 533.621 127.809L533.553 172.644L533.432 310.281L533.415 393.204C533.421 405.36 534.176 422.476 532.822 434.207C528.962 453.839 515.042 472.237 497.846 482.071C488.019 487.69 480.456 489.983 469.843 491.021C462.745 491.776 452.157 491.234 444.816 491.229L398.532 491.208L252.075 491.232L151.87 491.279L122.181 491.341C115.533 491.351 107.641 491.65 100.976 490.714C70.119 486.384 42.187 456.261 41.837 424.836C41.782 419.888 41.86 414.842 41.854 409.883L41.814 368.717L41.826 242.39L41.818 147.61L41.822 120.444C41.825 114.365 41.477 106.489 42.477 100.571C48.046 67.6075 74.353 44.4945 107.532 41.9345Z" fill="#DBDBDB"/>
<path d="M166.091 187.855C174.387 187.003 182.729 188.983 189.758 193.472C198.134 198.736 204.07 207.118 206.255 216.766C207.557 222.767 207.663 256.869 206.541 263.174C205.632 268.402 203.703 273.4 200.864 277.882C194.675 287.525 186.108 292.402 175.139 294.757C151.924 297.782 131.164 278.548 132.513 255.378C133.165 244.194 131.133 228.488 133.477 218.117C134.633 213.176 136.743 208.509 139.689 204.378C146.253 195.028 154.923 189.798 166.091 187.855Z" fill="#010101"/>
<path d="M402.065 187.865C410.451 187.042 416.835 188.33 424.205 192.603C433.144 197.754 439.645 206.273 442.253 216.255C443.885 222.514 443.794 258.333 442.676 264.519C441.907 268.723 440.38 272.752 438.169 276.409C432.017 286.611 422.908 292.06 411.575 294.798C391.58 297.433 373.079 282.889 369.751 262.964C368.148 253.369 369.935 240.398 369.329 230.465C368.036 209.267 380.564 191.397 402.065 187.865Z" fill="#010101"/>
<path d="M358.45 321.816C362.369 321.636 367.405 322.651 370.066 325.814C376.257 333.174 370.858 343.142 366.215 349.856C328.933 403.774 252.87 405.488 212.67 353.816C209.607 349.656 208.083 346.274 205.41 341.72C198.383 329.746 212.335 316.666 223.255 324.112C226.11 326.059 228.484 332.637 230.604 335.976C237.514 346.858 248.164 355.1 259.816 360.446C285.912 371.869 318.864 366 338.372 345.043C341.31 341.921 343.969 338.548 346.319 334.962C349.962 329.387 351.299 324.44 357.809 322.045L358.45 321.816Z" fill="#010101"/>
<path d="M93.177 294.339C103.518 294.153 123.167 292.347 131.769 297.678C150.677 309.398 143.843 331.745 122.403 335.66C111.131 335.857 91.599 337.707 82.539 331.996C77.916 329.144 74.622 324.566 73.388 319.276C70.504 306.385 81.3 296.441 93.177 294.339Z" fill="#010101"/>
<path d="M455.568 294.383C465.674 293.699 486.75 292.796 494.997 298.863C499.308 302.01 502.157 306.773 502.888 312.06C504.804 325.189 493.948 334.026 481.841 335.594C474.638 336.073 455.658 336.448 449.48 334.68C424.919 327.65 430.676 297.447 455.568 294.383Z" fill="#010101"/>
<path d="M511.404 345.548L512.369 345.885C513.759 348.612 513.267 414.638 513.216 422.698C513.196 425.927 513.246 429.772 511.939 432.771C508.995 439.525 491.373 455.49 484.92 461.878C482.532 464.242 479.873 466.927 476.605 467.992C470.383 470.019 435.27 468.716 426.185 468.67C425.847 468.608 425.568 468.365 425.268 468.196C424.771 465.626 424.853 459.952 424.816 457.081C440.306 456.923 456.131 457.15 471.668 457.159C477.323 452.871 495.772 434.609 500.186 429.061C500.627 414.776 499.961 398.784 500.201 384.323C500.32 377.181 500.56 359.925 499.758 353.672C503.475 349.65 506.358 347.545 511.404 345.548Z" fill="#010101"/>
<path d="M468.09 63.9955C469.384 63.9275 470.679 63.8835 471.974 63.8645C483.554 63.8085 493.801 79.5885 502.527 86.7425C509.398 92.3765 512.897 97.9495 512.817 106.903C512.728 116.705 512.863 126.914 512.86 136.881L512.954 190.52C509.281 190.778 504.693 190.647 500.945 190.639L500.916 174.247C501.255 152.024 501.69 125.381 501.073 103.282C497.564 97.4595 477.717 78.5915 471.904 75.0205C462.939 74.6205 450.585 74.9445 441.634 75.1135C441.526 71.5105 441.583 67.7155 441.582 64.0945C450.418 64.1245 459.254 64.0915 468.09 63.9955Z" fill="#010101"/>
<path d="M204.55 87.1285C210.133 81.8775 218.126 78.7355 224.06 84.8805C229.872 90.8995 227.926 110.116 227.924 118.197L217.511 118.25C217.314 113.455 218.155 94.4105 216.879 93.3585C203.351 82.2035 206.846 110.806 206.932 113.541C206.904 116.014 207.316 115.965 206.16 117.613C203.449 118.771 199.656 118.183 196.403 118.109C196.64 114.043 197.747 94.1915 194.74 92.5075C182.056 85.4025 185.438 111.456 185.28 118.118C181.93 118.212 178.097 118.075 174.707 118.027C174.646 106.416 174.689 94.8055 174.835 83.1955C178.169 82.9335 180.489 82.6855 183.83 82.9445C185.05 83.8205 184.679 83.9015 185.044 85.9235C185.807 85.8795 191.395 82.5045 193.494 81.7875C199.024 81.3875 201.384 82.7125 204.55 87.1285Z" fill="#010101"/>
<path d="M249.488 81.8704C271.873 78.6984 267.33 103.973 266.969 118.2C264.936 118.217 258.744 118.543 257.4 117.866C257.476 116.5 257.629 115.92 257.192 114.634C252.003 114.68 246.928 124.939 235.876 115.462C229.111 107.601 234.408 100.932 242.598 98.4164C246.442 97.2354 253.159 96.7875 255.979 94.6005C256.213 93.7665 256.519 93.5614 256.028 92.9084C252.539 88.2714 246.667 90.9045 243.227 92.9195C239.992 92.9465 237.34 93.5094 235.364 90.7144C235.513 84.9364 244.831 82.5634 249.488 81.8704Z" fill="#010101"/>
<path d="M256.728 103.041C259.537 106.874 250.997 112.549 245.199 111.147C244.314 110.153 244.333 110.109 243.615 108.972C243.32 103.312 252.42 103.514 256.728 103.041Z" fill="#DBDBDB"/>
<path d="M93.175 81.7845C113.541 80.9535 109.013 103.809 108.758 117.95C105.495 118.258 101.249 118.154 97.887 118.162C97.756 114.111 97.876 109.51 98.012 105.455C98.265 97.8885 98.461 87.1045 87.37 92.7365C84.368 95.5915 83.964 98.0785 84.014 102.158C84.081 107.554 84.25 112.749 84.036 118.153L73.126 118.187L72.973 83.1745C77.708 83.0465 81.591 81.1735 83.963 85.7765C87.575 84.4445 88.967 82.8515 93.175 81.7845Z" fill="#010101"/>
<path d="M158.818 83.1765L170.059 83.2445C167.816 87.2025 160.525 96.6305 157.575 100.66C160.262 104.198 167.773 113.748 169.386 117.345L168.797 117.977C165.394 118.077 161.838 118.067 158.421 118.109C156.197 114.389 153.449 111.068 150.75 107.686C148.329 110.577 145.555 114.927 143.378 118.134C139.249 118.149 135.12 118.119 130.992 118.042C135.451 112.398 140.395 106.415 144.414 100.516C141.033 94.9605 135.611 88.8735 132.69 83.3555C136.078 83.0915 141.152 83.2155 144.664 83.1955L151.33 92.9955C153.753 90.3195 156.618 86.1725 158.818 83.1765Z" fill="#010101"/>
<path d="M287.662 81.8105C296.856 81.2985 303.12 82.3265 307.295 91.4085C304.257 93.5745 303.119 93.9825 299.752 95.2635C288.319 82.5295 279.843 98.2185 285.085 106.724C286.239 108.595 288.136 109.885 290.3 110.271C296.459 111.399 294.748 104.873 302.402 106.448C303.998 106.864 304.733 106.914 305.997 107.99C307.825 113.207 300.416 117.235 296.465 118.612C291.659 120.283 286.373 119.867 281.886 117.466C267.115 109.502 269.213 86.8475 287.662 81.8105Z" fill="#010101"/>
<path d="M116.367 83.1945C120.141 83.0315 123.628 83.1095 127.407 83.1825C128.009 91.5135 127.376 108.687 127.528 118.036C124.037 118.226 119.797 118.116 116.242 118.112C116.44 106.474 116.482 94.8335 116.367 83.1945Z" fill="#010101"/>
<path d="M394.008 64.2104L414.93 64.1375C415.008 67.7375 415.029 71.3385 414.992 74.9395C407.987 74.8985 400.981 74.9424 393.977 75.0714L394.008 64.2104Z" fill="#010101"/>
<path d="M397.257 457.425C402.7 457.077 409.717 457.249 415.31 457.25C415.311 460.8 415.434 465.242 415.036 468.692C408.797 468.708 402.932 468.698 396.696 468.447C396.626 466.002 396.17 459.238 397.257 457.425Z" fill="#010101"/>
<path d="M72.734 171.666C79.961 171.592 87.131 171.454 94.354 171.755L94.338 180.941C87.145 180.971 79.952 180.948 72.759 180.872L72.734 171.666Z" fill="#010101"/>
<path d="M72.754 150.943C79.303 150.651 87.547 150.956 94.219 151.033L94.583 160.115C87.745 160.385 79.731 160.21 72.802 160.23L72.754 150.943Z" fill="#010101"/>
<path d="M72.815 133.898C79.275 133.564 87.942 133.832 94.568 133.842L94.467 141.733C87.371 141.96 79.944 141.905 72.818 141.948C72.765 139.315 72.81 136.543 72.815 133.898Z" fill="#010101"/>
<path d="M499.841 236.395C504.026 236.269 508.718 236.423 512.941 236.469C513.043 240.181 513.044 244.008 513.094 247.731C508.686 247.706 504.279 247.612 499.875 247.452L499.841 236.395Z" fill="#010101"/>
<path d="M120.357 65.3165C123.808 64.3405 127.399 66.3315 128.4 69.7745C129.401 73.2175 127.436 76.8235 124 77.8495C120.529 78.8855 116.878 76.8965 115.867 73.4175C114.855 69.9385 116.871 66.3025 120.357 65.3165Z" fill="#010101"/>
<path d="M500.069 202.676C504.299 202.495 508.776 202.671 513.028 202.762C513.091 206.199 512.98 209.706 512.91 213.149L500.055 212.825C499.929 209.359 499.998 206.144 500.069 202.676Z" fill="#010101"/>
<path d="M500.315 220.927C504.827 220.79 508.372 220.858 512.887 221.065C512.89 223.649 512.999 226.413 513.06 229.012L500.165 228.718C500.141 225.951 500.162 223.705 500.315 220.927Z" fill="#010101"/>
<path d="M72.746 380.755L85.826 380.62C85.879 383.033 85.864 385.851 86.053 388.221C81.867 388.408 76.95 388.279 72.708 388.271L72.746 380.755Z" fill="#010101"/>
<path d="M425.046 64.4305C427.669 64.2975 430.595 64.2975 433.246 64.2465C433.161 67.7295 433.306 71.4864 433.378 74.9944L425.067 74.8725L425.046 64.4305Z" fill="#010101"/>
<path d="M85.826 380.62C89.405 380.492 92.452 380.391 96.027 380.526L96.185 388.13C92.981 388.156 89.205 388.087 86.053 388.222C85.864 385.852 85.879 383.033 85.826 380.62Z" fill="#717271"/>
</svg>
