<svg width="534" height="494" viewBox="0 0 534 494" fill="none" xmlns="http://www.w3.org/2000/svg">
<mask id="path-1-outside-1_3_371" maskUnits="userSpaceOnUse" x="0" y="0" width="534" height="494" fill="black">
<rect fill="white" width="534" height="494"/>
<path d="M446 2C493.496 2 532 40.5035 532 88V406C532 453.496 493.496 492 446 492H88C40.5035 492 2 453.496 2 406V88C2.00001 40.5035 40.5035 2 88 2H446ZM453.351 23.9854C448.474 23.2644 439.901 23.5016 434.713 23.5156L408.021 23.5869L320.681 23.5625L167.079 23.583L116.518 23.5576C107.139 23.5516 96.6115 23.324 87.3096 23.71C54.1308 26.2701 27.824 49.383 22.2549 82.3467C21.2549 88.2646 21.6026 96.1408 21.5996 102.22L21.5957 129.385L21.6035 224.166L21.5918 350.493L21.6318 391.658C21.6378 396.617 21.5602 401.664 21.6152 406.612C21.9654 438.037 49.897 468.16 80.7539 472.49C87.4189 473.426 95.311 473.126 101.959 473.116L131.647 473.055L231.853 473.008L378.31 472.984L424.594 473.004C431.935 473.009 442.523 473.552 449.621 472.797C460.234 471.759 467.797 469.466 477.624 463.847C494.82 454.013 508.739 435.615 512.6 415.983C513.954 404.253 513.199 387.136 513.193 374.98L513.21 292.057L513.331 154.419L513.398 109.585C513.399 100.912 513.676 89.8046 512.833 81.4316C511.177 65.0019 500.821 49.0212 488.072 38.8623C478.854 31.5173 465.043 25.7134 453.351 23.9854Z"/>
</mask>
<path d="M446 2C493.496 2 532 40.5035 532 88V406C532 453.496 493.496 492 446 492H88C40.5035 492 2 453.496 2 406V88C2.00001 40.5035 40.5035 2 88 2H446ZM453.351 23.9854C448.474 23.2644 439.901 23.5016 434.713 23.5156L408.021 23.5869L320.681 23.5625L167.079 23.583L116.518 23.5576C107.139 23.5516 96.6115 23.324 87.3096 23.71C54.1308 26.2701 27.824 49.383 22.2549 82.3467C21.2549 88.2646 21.6026 96.1408 21.5996 102.22L21.5957 129.385L21.6035 224.166L21.5918 350.493L21.6318 391.658C21.6378 396.617 21.5602 401.664 21.6152 406.612C21.9654 438.037 49.897 468.16 80.7539 472.49C87.4189 473.426 95.311 473.126 101.959 473.116L131.647 473.055L231.853 473.008L378.31 472.984L424.594 473.004C431.935 473.009 442.523 473.552 449.621 472.797C460.234 471.759 467.797 469.466 477.624 463.847C494.82 454.013 508.739 435.615 512.6 415.983C513.954 404.253 513.199 387.136 513.193 374.98L513.21 292.057L513.331 154.419L513.398 109.585C513.399 100.912 513.676 89.8046 512.833 81.4316C511.177 65.0019 500.821 49.0212 488.072 38.8623C478.854 31.5173 465.043 25.7134 453.351 23.9854Z" fill="white" fill-opacity="0.7"/>
<path d="M446 2L446 0H446V2ZM532 406L534 406V406H532ZM446 492L446 494H446L446 492ZM88 492L88 494H88V492ZM2 88L0 88V88H2ZM88 2L88 0L88 0L88 2ZM453.351 23.9854L453.058 25.9639L453.058 25.9639L453.351 23.9854ZM434.713 23.5156L434.718 25.5156L434.718 25.5156L434.713 23.5156ZM408.021 23.5869L408.02 25.5869L408.026 25.5869L408.021 23.5869ZM320.681 23.5625L320.681 21.5625L320.68 21.5625L320.681 23.5625ZM167.079 23.583L167.078 25.583L167.079 25.583L167.079 23.583ZM116.518 23.5576L116.516 25.5576L116.517 25.5576L116.518 23.5576ZM87.3096 23.71L87.2266 21.7117L87.1911 21.7132L87.1557 21.7159L87.3096 23.71ZM22.2549 82.3467L24.2269 82.6799L24.2269 82.6799L22.2549 82.3467ZM21.5996 102.22L19.5996 102.219L19.5996 102.219L21.5996 102.22ZM21.5957 129.385L19.5957 129.384L19.5957 129.385L21.5957 129.385ZM21.6035 224.166L23.6035 224.166L23.6035 224.166L21.6035 224.166ZM21.5918 350.493L19.5918 350.493L19.5918 350.495L21.5918 350.493ZM21.6318 391.658L19.6318 391.66L19.6318 391.661L21.6318 391.658ZM21.6152 406.612L19.6154 406.635L19.6154 406.635L21.6152 406.612ZM80.7539 472.49L81.032 470.51L81.0318 470.51L80.7539 472.49ZM101.959 473.116L101.962 475.116L101.963 475.116L101.959 473.116ZM131.647 473.055L131.647 471.055L131.643 471.055L131.647 473.055ZM231.853 473.008L231.852 471.008L231.852 471.008L231.853 473.008ZM378.31 472.984L378.31 470.984L378.309 470.984L378.31 472.984ZM424.594 473.004L424.595 471.004L424.595 471.004L424.594 473.004ZM449.621 472.797L449.426 470.806L449.418 470.807L449.41 470.808L449.621 472.797ZM477.624 463.847L478.617 465.583L478.617 465.583L477.624 463.847ZM512.6 415.983L514.562 416.369L514.577 416.291L514.586 416.213L512.6 415.983ZM513.193 374.98L511.193 374.98L511.193 374.981L513.193 374.98ZM513.21 292.057L511.21 292.055L511.21 292.056L513.21 292.057ZM513.331 154.419L511.331 154.416L511.331 154.417L513.331 154.419ZM513.398 109.585L515.398 109.588L515.398 109.585L513.398 109.585ZM512.833 81.4316L514.823 81.2313L514.823 81.2311L512.833 81.4316ZM488.072 38.8623L489.319 37.2982L489.319 37.2981L488.072 38.8623ZM446 2L446 4C492.392 4 530 41.6081 530 88H532H534C534 39.3989 494.601 5.07622e-06 446 0L446 2ZM532 88H530V406H532H534V88H532ZM532 406L530 406C530 452.392 492.392 490 446 490L446 492L446 494C494.601 494 534 454.601 534 406L532 406ZM446 492V490H88V492V494H446V492ZM88 492L88 490C41.6081 490 4 452.392 4 406H2H0C0 454.601 39.3989 494 88 494L88 492ZM2 406H4V88H2H0V406H2ZM2 88L4 88C4.00001 41.6081 41.6081 4 88 4L88 2L88 0C39.3989 7.08693e-07 6.39549e-06 39.3989 0 88L2 88ZM88 2V4H446V2V0H88V2ZM453.351 23.9854L453.643 22.0069C448.571 21.257 439.753 21.502 434.707 21.5156L434.713 23.5156L434.718 25.5156C440.048 25.5012 448.376 25.2718 453.058 25.9639L453.351 23.9854ZM434.713 23.5156L434.708 21.5156L408.015 21.5869L408.021 23.5869L408.026 25.5869L434.718 25.5156L434.713 23.5156ZM408.021 23.5869L408.021 21.5869L320.681 21.5625L320.681 23.5625L320.68 25.5625L408.02 25.5869L408.021 23.5869ZM320.681 23.5625L320.68 21.5625L167.079 21.583L167.079 23.583L167.079 25.583L320.681 25.5625L320.681 23.5625ZM167.079 23.583L167.08 21.583L116.519 21.5576L116.518 23.5576L116.517 25.5576L167.078 25.583L167.079 23.583ZM116.518 23.5576L116.519 21.5576C107.203 21.5517 96.5845 21.3234 87.2266 21.7117L87.3096 23.71L87.3925 25.7082C96.6384 25.3246 107.074 25.5516 116.516 25.5576L116.518 23.5576ZM87.3096 23.71L87.1557 21.7159C53.0964 24.344 26.0106 48.1103 20.2828 82.0135L22.2549 82.3467L24.2269 82.6799C29.6373 50.6556 55.1652 28.1962 87.4634 25.704L87.3096 23.71ZM22.2549 82.3467L20.2828 82.0135C19.246 88.1495 19.6025 96.3081 19.5996 102.219L21.5996 102.22L23.5996 102.221C23.6027 95.9734 23.2638 88.3797 24.2269 82.6799L22.2549 82.3467ZM21.5996 102.22L19.5996 102.219L19.5957 129.384L21.5957 129.385L23.5957 129.385L23.5996 102.22L21.5996 102.22ZM21.5957 129.385L19.5957 129.385L19.6035 224.166L21.6035 224.166L23.6035 224.166L23.5957 129.385L21.5957 129.385ZM21.6035 224.166L19.6035 224.166L19.5918 350.493L21.5918 350.493L23.5918 350.493L23.6035 224.166L21.6035 224.166ZM21.5918 350.493L19.5918 350.495L19.6318 391.66L21.6318 391.658L23.6318 391.656L23.5918 350.491L21.5918 350.493ZM21.6318 391.658L19.6318 391.661C19.6378 396.565 19.5603 401.683 19.6154 406.635L21.6152 406.612L23.6151 406.59C23.5602 401.646 23.6379 396.669 23.6318 391.656L21.6318 391.658ZM21.6152 406.612L19.6154 406.635C19.7969 422.926 27.1166 438.766 38.2631 451.055C49.4091 463.345 64.5128 472.231 80.476 474.471L80.7539 472.49L81.0318 470.51C66.1381 468.42 51.8476 460.079 41.226 448.368C30.6049 436.658 23.7837 421.724 23.6151 406.59L21.6152 406.612ZM80.7539 472.49L80.4758 474.471C87.3242 475.433 95.4376 475.126 101.962 475.116L101.959 473.116L101.956 471.116C95.1844 471.126 87.5136 471.42 81.032 470.51L80.7539 472.49ZM101.959 473.116L101.963 475.116L131.652 475.055L131.647 473.055L131.643 471.055L101.955 471.116L101.959 473.116ZM131.647 473.055L131.648 475.055L231.853 475.008L231.853 473.008L231.852 471.008L131.647 471.055L131.647 473.055ZM231.853 473.008L231.853 475.008L378.31 474.984L378.31 472.984L378.309 470.984L231.852 471.008L231.853 473.008ZM378.31 472.984L378.309 474.984L424.593 475.004L424.594 473.004L424.595 471.004L378.31 470.984L378.31 472.984ZM424.594 473.004L424.592 475.004C431.742 475.009 442.595 475.556 449.833 474.786L449.621 472.797L449.41 470.808C442.451 471.548 432.127 471.009 424.595 471.004L424.594 473.004ZM449.621 472.797L449.816 474.787C460.703 473.722 468.539 471.345 478.617 465.583L477.624 463.847L476.631 462.11C467.055 467.586 459.765 469.795 449.426 470.806L449.621 472.797ZM477.624 463.847L478.617 465.583C496.283 455.48 510.583 436.607 514.562 416.369L512.6 415.983L510.637 415.598C506.896 434.623 493.357 452.546 476.631 462.111L477.624 463.847ZM512.6 415.983L514.586 416.213C515.958 404.329 515.199 386.969 515.193 374.979L513.193 374.98L511.193 374.981C511.199 387.304 511.949 404.176 510.613 415.754L512.6 415.983ZM513.193 374.98L515.193 374.981L515.21 292.057L513.21 292.057L511.21 292.056L511.193 374.98L513.193 374.98ZM513.21 292.057L515.21 292.058L515.331 154.421L513.331 154.419L511.331 154.417L511.21 292.055L513.21 292.057ZM513.331 154.419L515.331 154.422L515.398 109.588L513.398 109.585L511.398 109.582L511.331 154.416L513.331 154.419ZM513.398 109.585L515.398 109.585C515.399 101.008 515.679 89.7362 514.823 81.2313L512.833 81.4316L510.843 81.632C511.673 89.8731 511.399 100.816 511.398 109.585L513.398 109.585ZM512.833 81.4316L514.823 81.2311C513.101 64.1529 502.391 47.7153 489.319 37.2982L488.072 38.8623L486.826 40.4264C499.251 50.3272 509.252 65.851 510.843 81.6322L512.833 81.4316ZM488.072 38.8623L489.319 37.2981C479.81 29.7215 465.665 23.7836 453.643 22.0068L453.351 23.9854L453.058 25.9639C464.42 27.6431 477.899 33.3131 486.826 40.4265L488.072 38.8623Z" fill="white" mask="url(#path-1-outside-1_3_371)"/>
<path d="M145.869 169.631C154.165 168.779 162.507 170.759 169.536 175.248C177.912 180.512 183.848 188.894 186.033 198.542C187.335 204.543 187.441 238.645 186.319 244.95C185.41 250.178 183.481 255.176 180.642 259.658C174.453 269.301 165.886 274.178 154.917 276.533C131.702 279.558 110.942 260.324 112.291 237.154C112.943 225.97 110.911 210.264 113.255 199.893C114.411 194.952 116.521 190.285 119.467 186.154C126.031 176.804 134.701 171.574 145.869 169.631Z" fill="white" fill-opacity="0.7"/>
<path d="M381.843 169.64C390.229 168.817 396.613 170.106 403.983 174.379C412.922 179.53 419.423 188.049 422.031 198.031C423.663 204.29 423.572 240.108 422.454 246.294C421.685 250.498 420.158 254.527 417.947 258.184C411.795 268.386 402.686 273.836 391.353 276.574C371.358 279.209 352.857 264.665 349.529 244.74C347.926 235.145 349.713 222.174 349.107 212.241C347.814 191.043 360.342 173.172 381.843 169.64Z" fill="white" fill-opacity="0.7"/>
<path d="M338.228 303.592C342.147 303.412 347.183 304.427 349.844 307.59C356.035 314.95 350.636 324.918 345.993 331.632C308.711 385.55 232.648 387.264 192.448 335.592C189.385 331.432 187.861 328.05 185.188 323.496C178.161 311.522 192.113 298.442 203.033 305.888C205.888 307.835 208.262 314.413 210.382 317.752C217.292 328.634 227.942 336.876 239.594 342.222C265.69 353.645 298.642 347.776 318.15 326.819C321.088 323.697 323.747 320.324 326.097 316.738C329.74 311.163 331.077 306.216 337.587 303.821L338.228 303.592Z" fill="white" fill-opacity="0.7"/>
<path d="M72.9548 276.115C83.2958 275.929 102.945 274.123 111.547 279.454C130.455 291.174 123.621 313.521 102.181 317.436C90.9088 317.633 71.3768 319.483 62.3168 313.772C57.6938 310.92 54.3998 306.341 53.1658 301.051C50.2818 288.16 61.0778 278.217 72.9548 276.115Z" fill="white" fill-opacity="0.7"/>
<path d="M435.346 276.159C445.452 275.475 466.528 274.572 474.775 280.639C479.086 283.786 481.935 288.549 482.666 293.836C484.582 306.965 473.726 315.802 461.619 317.37C454.416 317.849 435.436 318.224 429.258 316.456C404.697 309.426 410.454 279.223 435.346 276.159Z" fill="white" fill-opacity="0.7"/>
<path d="M491.182 327.324L492.147 327.661C493.537 330.388 493.045 396.414 492.994 404.474C492.974 407.703 493.024 411.547 491.717 414.546C488.773 421.3 471.151 437.265 464.698 443.653C462.31 446.017 459.651 448.703 456.383 449.768C450.161 451.795 415.048 450.492 405.963 450.446C405.625 450.384 405.346 450.141 405.046 449.972C404.549 447.402 404.631 441.727 404.594 438.856C420.084 438.698 435.909 438.926 451.446 438.935C457.101 434.647 475.55 416.385 479.964 410.837C480.405 396.552 479.739 380.56 479.979 366.099C480.098 358.957 480.338 341.701 479.536 335.448C483.253 331.426 486.136 329.321 491.182 327.324Z" fill="white" fill-opacity="0.7"/>
<path d="M447.868 45.771C449.162 45.703 450.457 45.659 451.752 45.64C463.332 45.584 473.579 61.364 482.305 68.518C489.176 74.152 492.675 79.725 492.595 88.678C492.506 98.48 492.641 108.689 492.638 118.656L492.732 172.295C489.059 172.553 484.471 172.422 480.723 172.414L480.694 156.022C481.033 133.799 481.468 107.156 480.851 85.057C477.342 79.235 457.495 60.367 451.682 56.796C442.717 56.396 430.363 56.72 421.412 56.889C421.304 53.286 421.361 49.491 421.36 45.87C430.196 45.9 439.032 45.867 447.868 45.771Z" fill="white" fill-opacity="0.7"/>
<path d="M184.328 68.904C189.911 63.653 197.904 60.511 203.838 66.656C209.65 72.675 207.704 91.892 207.702 99.973L197.289 100.026C197.092 95.231 197.933 76.186 196.657 75.134C183.129 63.979 186.624 92.582 186.71 95.317C186.682 97.79 187.094 97.741 185.938 99.389C183.227 100.547 179.434 99.959 176.181 99.885C176.418 95.819 177.525 75.967 174.518 74.283C161.834 67.178 165.216 93.232 165.058 99.894C161.708 99.988 157.875 99.851 154.485 99.803C154.424 88.192 154.467 76.581 154.613 64.971C157.947 64.709 160.267 64.461 163.608 64.72C164.828 65.596 164.457 65.677 164.822 67.699C165.585 67.655 171.173 64.28 173.272 63.563C178.802 63.163 181.162 64.488 184.328 68.904Z" fill="white" fill-opacity="0.7"/>
<path d="M229.266 63.646C251.651 60.474 247.108 85.749 246.747 99.976C244.714 99.993 238.522 100.319 237.178 99.642C237.254 98.276 237.407 97.696 236.97 96.41C231.781 96.456 226.706 106.715 215.654 97.238C208.889 89.377 214.186 82.708 222.376 80.192C226.22 79.011 232.937 78.563 235.757 76.376C235.991 75.542 236.297 75.337 235.806 74.684C232.317 70.047 226.445 72.68 223.005 74.695C219.77 74.722 217.118 75.285 215.142 72.49C215.291 66.712 224.609 64.339 229.266 63.646Z" fill="white" fill-opacity="0.7"/>
<path d="M236.506 84.816C239.315 88.649 230.775 94.324 224.977 92.922C224.092 91.928 224.111 91.884 223.393 90.747C223.098 85.087 232.198 85.289 236.506 84.816Z" fill="white" fill-opacity="0.7"/>
<path d="M72.953 63.56C93.319 62.729 88.791 85.584 88.536 99.725C85.273 100.033 81.027 99.929 77.665 99.937C77.534 95.886 77.654 91.285 77.79 87.23C78.043 79.664 78.239 68.88 67.148 74.512C64.146 77.367 63.742 79.854 63.792 83.934C63.859 89.33 64.028 94.525 63.814 99.929L52.904 99.962L52.751 64.95C57.486 64.822 61.369 62.949 63.741 67.552C67.353 66.22 68.745 64.627 72.953 63.56Z" fill="white" fill-opacity="0.7"/>
<path d="M138.596 64.952L149.837 65.02C147.594 68.978 140.303 78.406 137.353 82.435C140.04 85.973 147.551 95.523 149.164 99.12L148.575 99.752C145.172 99.852 141.616 99.842 138.199 99.884C135.975 96.164 133.227 92.843 130.528 89.461C128.107 92.352 125.333 96.702 123.156 99.909C119.027 99.924 114.898 99.894 110.77 99.817C115.229 94.173 120.173 88.19 124.192 82.291C120.811 76.736 115.389 70.649 112.468 65.131C115.856 64.867 120.93 64.991 124.442 64.971L131.108 74.771C133.531 72.095 136.396 67.948 138.596 64.952Z" fill="white" fill-opacity="0.7"/>
<path d="M267.44 63.586C276.634 63.074 282.898 64.102 287.073 73.184C284.035 75.35 282.897 75.758 279.53 77.039C268.097 64.305 259.621 79.994 264.863 88.5C266.017 90.371 267.914 91.661 270.078 92.047C276.237 93.175 274.526 86.649 282.18 88.224C283.776 88.64 284.511 88.69 285.775 89.766C287.603 94.983 280.194 99.011 276.243 100.388C271.437 102.059 266.151 101.643 261.664 99.242C246.893 91.278 248.991 68.623 267.44 63.586Z" fill="white" fill-opacity="0.7"/>
<path d="M96.145 64.97C99.919 64.807 103.406 64.885 107.185 64.958C107.787 73.289 107.154 90.463 107.306 99.812C103.815 100.002 99.575 99.892 96.02 99.888C96.218 88.25 96.26 76.609 96.145 64.97Z" fill="white" fill-opacity="0.7"/>
<path d="M373.786 45.986L394.708 45.913C394.786 49.513 394.807 53.114 394.77 56.715C387.765 56.674 380.759 56.718 373.755 56.847L373.786 45.986Z" fill="white" fill-opacity="0.7"/>
<path d="M377.035 439.2C382.478 438.852 389.495 439.024 395.088 439.025C395.089 442.575 395.212 447.017 394.814 450.467C388.575 450.483 382.71 450.473 376.474 450.222C376.404 447.777 375.948 441.013 377.035 439.2Z" fill="white" fill-opacity="0.7"/>
<path d="M52.512 153.442C59.739 153.368 66.909 153.23 74.132 153.531L74.116 162.717C66.923 162.747 59.73 162.724 52.537 162.648L52.512 153.442Z" fill="white" fill-opacity="0.7"/>
<path d="M52.532 132.718C59.081 132.426 67.325 132.731 73.997 132.808L74.361 141.89C67.523 142.16 59.509 141.985 52.58 142.005L52.532 132.718Z" fill="white" fill-opacity="0.7"/>
<path d="M52.5929 115.674C59.0529 115.34 67.7199 115.608 74.3459 115.618L74.2449 123.509C67.1489 123.736 59.7219 123.681 52.5959 123.724C52.5429 121.091 52.5879 118.319 52.5929 115.674Z" fill="white" fill-opacity="0.7"/>
<path d="M479.619 218.17C483.804 218.044 488.496 218.199 492.719 218.245C492.821 221.957 492.822 225.783 492.872 229.506C488.464 229.481 484.057 229.388 479.653 229.228L479.619 218.17Z" fill="white" fill-opacity="0.7"/>
<path d="M100.135 47.092C103.586 46.116 107.177 48.107 108.178 51.55C109.179 54.993 107.214 58.599 103.778 59.625C100.307 60.661 96.656 58.672 95.645 55.193C94.633 51.714 96.649 48.078 100.135 47.092Z" fill="white" fill-opacity="0.7"/>
<path d="M479.847 184.452C484.077 184.271 488.554 184.447 492.806 184.538C492.869 187.975 492.758 191.481 492.688 194.924L479.833 194.6C479.707 191.134 479.776 187.92 479.847 184.452Z" fill="white" fill-opacity="0.7"/>
<path d="M480.093 202.703C484.605 202.566 488.15 202.634 492.665 202.841C492.668 205.425 492.777 208.189 492.838 210.788L479.943 210.493C479.919 207.726 479.94 205.481 480.093 202.703Z" fill="white" fill-opacity="0.7"/>
<path d="M52.5238 362.53L65.6039 362.395C65.6569 364.808 65.6418 367.627 65.8308 369.997C61.6448 370.184 56.7278 370.054 52.4858 370.046L52.5238 362.53Z" fill="white" fill-opacity="0.7"/>
<path d="M404.824 46.206C407.447 46.073 410.373 46.073 413.024 46.022C412.939 49.505 413.084 53.262 413.156 56.77L404.845 56.648L404.824 46.206Z" fill="white" fill-opacity="0.7"/>
<path d="M65.604 362.395C69.183 362.267 72.23 362.167 75.805 362.302L75.963 369.905C72.759 369.931 68.983 369.862 65.831 369.997C65.642 367.627 65.657 364.808 65.604 362.395Z" fill="white" fill-opacity="0.7"/>
</svg>
