<svg width="441" height="406" viewBox="0 0 441 406" fill="none" xmlns="http://www.w3.org/2000/svg">
<path d="M93.383 123.991C101.679 123.139 110.021 125.119 117.05 129.608C125.426 134.872 131.362 143.254 133.547 152.902C134.849 158.903 134.955 193.005 133.833 199.31C132.924 204.538 130.995 209.536 128.156 214.018C121.967 223.661 113.4 228.538 102.431 230.893C79.216 233.918 58.456 214.684 59.805 191.514C60.457 180.33 58.425 164.624 60.769 154.253C61.925 149.312 64.035 144.645 66.981 140.514C73.545 131.164 82.215 125.934 93.383 123.991Z" fill="#010101"/>
<path d="M329.357 124C337.743 123.177 344.127 124.466 351.497 128.739C360.436 133.89 366.937 142.409 369.545 152.391C371.177 158.65 371.086 194.468 369.968 200.654C369.199 204.858 367.672 208.887 365.461 212.544C359.309 222.746 350.2 228.196 338.867 230.934C318.872 233.569 300.371 219.025 297.043 199.1C295.44 189.505 297.227 176.534 296.621 166.601C295.328 145.403 307.856 127.532 329.357 124Z" fill="#010101"/>
<path d="M285.742 257.952C289.661 257.772 294.697 258.787 297.358 261.95C303.549 269.31 298.15 279.278 293.507 285.992C256.225 339.91 180.162 341.624 139.962 289.952C136.899 285.792 135.375 282.41 132.702 277.856C125.675 265.882 139.627 252.802 150.547 260.248C153.402 262.195 155.776 268.773 157.896 272.112C164.806 282.994 175.456 291.236 187.108 296.582C213.204 308.005 246.156 302.136 265.664 281.179C268.602 278.057 271.261 274.684 273.611 271.098C277.254 265.523 278.591 260.576 285.101 258.181L285.742 257.952Z" fill="#010101"/>
<path d="M20.469 230.475C30.81 230.289 50.459 228.483 59.061 233.814C77.969 245.534 71.135 267.881 49.695 271.796C38.423 271.993 18.891 273.843 9.83096 268.132C5.20796 265.28 1.91396 260.701 0.679957 255.411C-2.20404 242.52 8.59196 232.577 20.469 230.475Z" fill="#010101"/>
<path d="M382.86 230.519C392.966 229.835 414.042 228.932 422.289 234.999C426.6 238.146 429.449 242.909 430.18 248.196C432.096 261.325 421.24 270.162 409.133 271.73C401.93 272.209 382.95 272.584 376.772 270.816C352.211 263.786 357.968 233.583 382.86 230.519Z" fill="#010101"/>
<path d="M438.696 281.684L439.661 282.021C441.051 284.748 440.559 350.774 440.508 358.834C440.488 362.063 440.538 365.907 439.231 368.906C436.287 375.66 418.665 391.625 412.212 398.013C409.824 400.377 407.165 403.063 403.897 404.128C397.675 406.155 362.562 404.852 353.477 404.806C353.139 404.744 352.86 404.501 352.56 404.332C352.063 401.762 352.145 396.087 352.108 393.216C367.598 393.058 383.423 393.286 398.96 393.295C404.615 389.007 423.064 370.745 427.478 365.197C427.919 350.912 427.253 334.92 427.493 320.459C427.612 313.317 427.852 296.061 427.05 289.808C430.767 285.786 433.65 283.681 438.696 281.684Z" fill="#010101"/>
<path d="M395.382 0.13113C396.676 0.0631301 397.971 0.0191487 399.266 0.000148658C410.846 -0.0558513 421.093 15.7241 429.819 22.8781C436.69 28.5121 440.189 34.0851 440.109 43.0381C440.02 52.8401 440.155 63.0491 440.152 73.0161L440.246 126.655C436.573 126.913 431.985 126.782 428.237 126.774L428.208 110.382C428.547 88.1591 428.982 61.5161 428.365 39.4171C424.856 33.5951 405.009 14.7271 399.196 11.1561C390.231 10.7561 377.877 11.0801 368.926 11.2491C368.818 7.64614 368.875 3.85113 368.874 0.230129C377.71 0.260129 386.546 0.22713 395.382 0.13113Z" fill="#010101"/>
<path d="M131.842 23.2641C137.425 18.0131 145.418 14.8711 151.352 21.0161C157.164 27.0351 155.218 46.2521 155.216 54.3331L144.803 54.3861C144.606 49.5911 145.447 30.5461 144.171 29.4941C130.643 18.3391 134.138 46.9421 134.224 49.6771C134.196 52.1501 134.608 52.1011 133.452 53.7491C130.741 54.9071 126.948 54.3191 123.695 54.2451C123.932 50.1791 125.039 30.3271 122.032 28.6431C109.348 21.5381 112.73 47.5921 112.572 54.2541C109.222 54.3481 105.389 54.2111 101.999 54.1631C101.938 42.5521 101.981 30.9411 102.127 19.3311C105.461 19.0691 107.781 18.8211 111.122 19.0801C112.342 19.9561 111.971 20.0371 112.336 22.0591C113.099 22.0151 118.687 18.6401 120.786 17.9231C126.316 17.5231 128.676 18.8481 131.842 23.2641Z" fill="#010101"/>
<path d="M176.78 18.0061C199.165 14.8341 194.622 40.1091 194.261 54.3361C192.228 54.3531 186.036 54.6791 184.692 54.0021C184.768 52.6361 184.921 52.0561 184.484 50.7701C179.295 50.8161 174.22 61.0751 163.168 51.5981C156.403 43.7371 161.7 37.0681 169.89 34.5521C173.734 33.3711 180.451 32.9231 183.271 30.7361C183.505 29.9021 183.811 29.6971 183.32 29.0441C179.831 24.4071 173.959 27.0401 170.519 29.0551C167.284 29.0821 164.632 29.6451 162.656 26.8501C162.805 21.0721 172.123 18.6991 176.78 18.0061Z" fill="#010101"/>
<path d="M184.02 39.1761C186.829 43.0091 178.289 48.6841 172.491 47.2821C171.606 46.2881 171.625 46.2441 170.907 45.1071C170.612 39.4471 179.712 39.6491 184.02 39.1761Z" fill="#DBDBDB"/>
<path d="M20.467 17.9201C40.833 17.0891 36.305 39.9441 36.05 54.0851C32.787 54.3931 28.541 54.2891 25.179 54.2971C25.048 50.2461 25.168 45.6451 25.304 41.5901C25.557 34.0241 25.753 23.2401 14.662 28.8721C11.66 31.7271 11.256 34.2141 11.306 38.2941C11.373 43.6901 11.542 48.8851 11.328 54.2891L0.417999 54.3221L0.265015 19.3101C5.00001 19.1821 8.883 17.3091 11.255 21.9121C14.867 20.5801 16.259 18.9871 20.467 17.9201Z" fill="#010101"/>
<path d="M86.11 19.3121L97.351 19.3801C95.108 23.3381 87.8169 32.7661 84.8669 36.7951C87.5539 40.3331 95.0649 49.8831 96.6779 53.4801L96.089 54.1122C92.686 54.2122 89.13 54.2021 85.713 54.2441C83.489 50.5241 80.741 47.2031 78.042 43.8211C75.621 46.7121 72.847 51.0621 70.67 54.2691C66.541 54.2841 62.4119 54.2541 58.2839 54.1771C62.7429 48.5331 67.6869 42.5501 71.7059 36.6511C68.3249 31.0961 62.9029 25.0092 59.9819 19.4911C63.3699 19.2271 68.4439 19.3511 71.9559 19.3311L78.6219 29.1311C81.0449 26.4551 83.91 22.3081 86.11 19.3121Z" fill="#010101"/>
<path d="M214.954 17.9461C224.148 17.4341 230.412 18.4621 234.587 27.5441C231.549 29.7101 230.411 30.1181 227.044 31.3991C215.611 18.6651 207.135 34.3541 212.377 42.8601C213.531 44.7311 215.428 46.0211 217.592 46.4071C223.751 47.5351 222.04 41.0091 229.694 42.5841C231.29 43.0001 232.025 43.0501 233.289 44.1261C235.117 49.3431 227.708 53.3711 223.757 54.7481C218.951 56.4191 213.665 56.0031 209.178 53.6021C194.407 45.6381 196.505 22.9831 214.954 17.9461Z" fill="#010101"/>
<path d="M43.6589 19.3301C47.4329 19.1671 50.9199 19.2451 54.6989 19.3181C55.3009 27.6491 54.6679 44.8231 54.8199 54.1721C51.3289 54.3621 47.0889 54.2521 43.5339 54.2481C43.7319 42.6101 43.7739 30.9691 43.6589 19.3301Z" fill="#010101"/>
<path d="M321.3 0.346069L342.222 0.273071C342.3 3.87307 342.321 7.47407 342.284 11.0751C335.279 11.0341 328.273 11.0781 321.269 11.2071L321.3 0.346069Z" fill="#010101"/>
<path d="M324.549 393.56C329.992 393.212 337.009 393.384 342.602 393.385C342.603 396.935 342.726 401.377 342.328 404.827C336.089 404.843 330.224 404.833 323.988 404.582C323.918 402.137 323.462 395.373 324.549 393.56Z" fill="#010101"/>
<path d="M0.026001 107.802C7.253 107.728 14.423 107.59 21.646 107.891L21.63 117.077C14.437 117.107 7.24399 117.084 0.0509949 117.008L0.026001 107.802Z" fill="#010101"/>
<path d="M0.0460205 87.0781C6.59502 86.7861 14.839 87.0911 21.511 87.1681L21.875 96.2501C15.037 96.5201 7.02299 96.3451 0.0939941 96.3651L0.0460205 87.0781Z" fill="#010101"/>
<path d="M0.107036 70.0341C6.56704 69.7001 15.2341 69.9681 21.8601 69.9781L21.759 77.8691C14.663 78.0961 7.23606 78.0411 0.110057 78.0841C0.0570568 75.4511 0.102036 72.6791 0.107036 70.0341Z" fill="#010101"/>
<path d="M427.133 172.53C431.318 172.404 436.01 172.559 440.233 172.605C440.335 176.317 440.336 180.143 440.386 183.866C435.978 183.841 431.571 183.748 427.167 183.588L427.133 172.53Z" fill="#010101"/>
<path d="M47.6489 1.4521C51.0999 0.476101 54.6909 2.46708 55.6919 5.91008C56.6929 9.35308 54.7279 12.9591 51.2919 13.9851C47.8209 15.0211 44.1699 13.0321 43.1589 9.55308C42.1469 6.07408 44.1629 2.4381 47.6489 1.4521Z" fill="#010101"/>
<path d="M427.361 138.812C431.591 138.631 436.068 138.807 440.32 138.898C440.383 142.335 440.272 145.841 440.202 149.284L427.347 148.96C427.221 145.494 427.29 142.28 427.361 138.812Z" fill="#010101"/>
<path d="M427.607 157.063C432.119 156.926 435.664 156.994 440.179 157.201C440.182 159.785 440.291 162.549 440.352 165.148L427.457 164.853C427.433 162.086 427.454 159.841 427.607 157.063Z" fill="#010101"/>
<path d="M0.0379944 316.89L13.118 316.755C13.171 319.168 13.156 321.987 13.345 324.357C9.159 324.544 4.242 324.414 0 324.406L0.0379944 316.89Z" fill="#010101"/>
<path d="M352.338 0.566071C354.961 0.433071 357.887 0.43308 360.538 0.38208C360.453 3.86508 360.598 7.62207 360.67 11.1301L352.359 11.0081L352.338 0.566071Z" fill="#010101"/>
<path d="M13.1179 316.755C16.6969 316.627 19.7439 316.527 23.3189 316.662L23.4769 324.265C20.2729 324.291 16.4969 324.222 13.3449 324.357C13.1559 321.987 13.1709 319.168 13.1179 316.755Z" fill="#717271"/>
</svg>
